<?xml version="1.0" encoding="utf-8"?>
<!-- Generator: Adobe Illustrator 24.3.0, SVG Export Plug-In . SVG Version: 6.00 Build 0)  -->
<svg version="1.1" id="Layer_1" xmlns="http://www.w3.org/2000/svg" xmlns:xlink="http://www.w3.org/1999/xlink" x="0px" y="0px"
	 viewBox="0 0 342 86" enable-background="new 0 0 342 86" xml:space="preserve">
<g id="logo_1_">
	<g id="logo_shape_1_">
		<path id="Path_1_1_" fill="#64C630" d="M61.75,78.03c-0.68,0.56-1.39,1.09-2.12,1.58c-24.89-18-23.44-62.31-0.14-78.72
			C83.43,18.43,83.46,58.87,61.75,78.03z"/>
		<path id="Path_2_1_" fill="#3A5A40" d="M53.29,82.36C31.66,89.46,3.72,72.92,0.7,49.94c5.64-4.83,25.28-4.29,36.24,3.87
			C39.8,64.42,44.57,74.3,53.29,82.36z"/>
		<path id="Path_3_1_" fill="#3A5A40" d="M65.95,82.36c21.63,7.1,49.58-9.43,52.59-32.42c-5.64-4.83-25.28-4.29-36.24,3.87
			C79.45,64.42,74.68,74.3,65.95,82.36z"/>
		<path id="Path_4_1_" fill="#64C630" d="M18.75,41.05c-1.25-8.46-1.18-16.45,1.84-24.14c4.78-0.27,12.44,2.57,17.23,6.38
			c-1.63,7.06-2.78,14.46-1.91,22.67C30.33,43.85,24.59,42.21,18.75,41.05z"/>
		<path id="Path_5_1_" fill="#64C630" d="M98.09,16.88c3.64,7.67,3.32,15.75,2.2,24.1c-5.7,1.28-11.09,2.51-16.85,5.13
			c0.06-8.02-0.11-15.5-2.31-22.54C84.57,20.14,92.24,17.1,98.09,16.88z"/>
	</g>
	<g id="Group_1_1_" transform="translate(-55 -36)">
		<g enable-background="new    ">
			<path fill="#3A5A40" d="M190.69,95.88h-4.1l-4.19-18.9h4.02l2.56,12.83l3.7-12.83h3.67l3.67,12.77l2.56-12.77h3.89l-4.19,18.9
				h-4.1l-3.75-13.2L190.69,95.88z"/>
			<path fill="#3A5A40" d="M219.93,94.13c-0.86,0.7-1.75,1.21-2.66,1.54c-0.91,0.32-1.92,0.49-3.04,0.49
				c-1.06,0-2.06-0.19-2.98-0.57c-0.93-0.38-1.73-0.89-2.4-1.54c-0.67-0.65-1.21-1.42-1.59-2.31c-0.39-0.89-0.58-1.85-0.58-2.88
				c0-1.01,0.18-1.96,0.55-2.85c0.37-0.89,0.88-1.67,1.53-2.32s1.42-1.17,2.31-1.55c0.89-0.38,1.84-0.57,2.85-0.57
				c0.99,0,1.91,0.19,2.77,0.58c0.85,0.39,1.59,0.91,2.21,1.58c0.62,0.67,1.11,1.46,1.46,2.39c0.35,0.93,0.53,1.93,0.53,3.01v0.97
				H210.4c0.25,0.88,0.74,1.59,1.46,2.13c0.72,0.54,1.57,0.81,2.54,0.81c0.61,0,1.19-0.1,1.73-0.3c0.54-0.2,1-0.48,1.38-0.84
				L219.93,94.13z M213.83,84.62c-0.85,0-1.58,0.26-2.19,0.77c-0.61,0.51-1.04,1.2-1.27,2.07h6.89c-0.23-0.83-0.66-1.51-1.28-2.04
				C215.36,84.89,214.64,84.62,213.83,84.62z"/>
			<path fill="#3A5A40" d="M226.85,76.17v19.71h-3.7v-18.9L226.85,76.17z"/>
			<path fill="#3A5A40" d="M233.43,76.17v19.71h-3.7v-18.9L233.43,76.17z"/>
			<path fill="#3A5A40" d="M236.32,95.88V81.82h3.7v1.11c0.54-0.45,1.14-0.79,1.8-1.03c0.66-0.23,1.37-0.35,2.15-0.35
				c1.62,0,2.95,0.52,4,1.57c1.04,1.04,1.57,2.39,1.57,4.02v8.75h-3.7v-8.21c0-0.88-0.27-1.59-0.8-2.13
				c-0.53-0.54-1.24-0.81-2.12-0.81c-0.61,0-1.17,0.12-1.66,0.37c-0.5,0.24-0.9,0.59-1.23,1.04v9.75H236.32z"/>
			<path fill="#3A5A40" d="M264.94,94.13c-0.86,0.7-1.75,1.21-2.66,1.54c-0.91,0.32-1.92,0.49-3.04,0.49
				c-1.06,0-2.06-0.19-2.98-0.57c-0.93-0.38-1.73-0.89-2.4-1.54c-0.67-0.65-1.21-1.42-1.59-2.31s-0.58-1.85-0.58-2.88
				c0-1.01,0.18-1.96,0.55-2.85c0.37-0.89,0.88-1.67,1.53-2.32c0.65-0.66,1.42-1.17,2.31-1.55c0.89-0.38,1.84-0.57,2.85-0.57
				c0.99,0,1.91,0.19,2.77,0.58c0.86,0.39,1.59,0.91,2.21,1.58c0.62,0.67,1.11,1.46,1.46,2.39c0.35,0.93,0.53,1.93,0.53,3.01v0.97
				h-10.48c0.25,0.88,0.74,1.59,1.46,2.13c0.72,0.54,1.57,0.81,2.54,0.81c0.61,0,1.19-0.1,1.73-0.3c0.54-0.2,1-0.48,1.38-0.84
				L264.94,94.13z M258.84,84.62c-0.85,0-1.58,0.26-2.19,0.77c-0.61,0.51-1.04,1.2-1.27,2.07h6.89c-0.23-0.83-0.66-1.51-1.28-2.04
				C260.37,84.89,259.65,84.62,258.84,84.62z"/>
			<path fill="#3A5A40" d="M267.1,94.21l1.84-2.46c0.83,0.54,1.61,0.94,2.35,1.2c0.74,0.26,1.48,0.39,2.21,0.39
				c0.83,0,1.49-0.13,1.98-0.41c0.5-0.27,0.74-0.63,0.74-1.08c0-0.36-0.14-0.65-0.42-0.86c-0.28-0.22-0.72-0.37-1.34-0.46l-2.7-0.41
				c-1.39-0.22-2.44-0.67-3.17-1.35c-0.73-0.68-1.09-1.59-1.09-2.73c0-1.35,0.53-2.43,1.59-3.24c1.06-0.81,2.48-1.21,4.27-1.21
				c1.03,0,2.02,0.15,3,0.45c0.97,0.3,1.9,0.73,2.78,1.31l-1.78,2.38c-0.77-0.45-1.51-0.79-2.21-1.01c-0.7-0.23-1.41-0.34-2.13-0.34
				c-0.67,0-1.2,0.13-1.61,0.38s-0.61,0.58-0.61,1c0,0.38,0.15,0.67,0.45,0.88s0.79,0.36,1.47,0.45l2.7,0.4
				c1.37,0.2,2.42,0.65,3.17,1.35s1.12,1.59,1.12,2.67c0,0.67-0.16,1.28-0.47,1.85c-0.32,0.57-0.74,1.06-1.28,1.47
				s-1.19,0.74-1.94,0.97s-1.58,0.35-2.46,0.35c-1.28,0-2.47-0.17-3.59-0.5S267.89,94.84,267.1,94.21z"/>
			<path fill="#3A5A40" d="M280.41,94.21l1.84-2.46c0.83,0.54,1.61,0.94,2.35,1.2c0.74,0.26,1.48,0.39,2.21,0.39
				c0.83,0,1.49-0.13,1.98-0.41c0.5-0.27,0.74-0.63,0.74-1.08c0-0.36-0.14-0.65-0.42-0.86s-0.72-0.37-1.34-0.46l-2.7-0.41
				c-1.39-0.22-2.44-0.67-3.17-1.35c-0.73-0.68-1.09-1.59-1.09-2.73c0-1.35,0.53-2.43,1.59-3.24c1.06-0.81,2.48-1.21,4.27-1.21
				c1.03,0,2.03,0.15,3,0.45c0.97,0.3,1.9,0.73,2.78,1.31l-1.78,2.38c-0.77-0.45-1.51-0.79-2.21-1.01c-0.7-0.23-1.41-0.34-2.13-0.34
				c-0.67,0-1.2,0.13-1.61,0.38c-0.41,0.25-0.61,0.58-0.61,1c0,0.38,0.15,0.67,0.45,0.88s0.79,0.36,1.47,0.45l2.7,0.4
				c1.37,0.2,2.43,0.65,3.17,1.35s1.12,1.59,1.12,2.67c0,0.67-0.16,1.28-0.47,1.85c-0.32,0.57-0.74,1.06-1.28,1.47
				s-1.19,0.74-1.94,0.97c-0.76,0.23-1.58,0.35-2.46,0.35c-1.28,0-2.48-0.17-3.59-0.5S281.21,94.84,280.41,94.21z"/>
			<path fill="#3A5A40" d="M299.31,80.44v-3.46h16.63v3.46h-6.34v15.44h-3.92V80.44H299.31z"/>
			<path fill="#3A5A40" d="M316.73,95.88V81.82h3.7v1.54c0.45-0.61,0.99-1.08,1.63-1.39c0.64-0.31,1.35-0.47,2.12-0.47
				c0.36,0.02,0.66,0.05,0.9,0.09c0.24,0.05,0.45,0.12,0.63,0.23v3.24c-0.27-0.13-0.57-0.22-0.89-0.28s-0.66-0.09-1-0.09
				c-0.72,0-1.38,0.18-1.98,0.54c-0.6,0.36-1.08,0.88-1.42,1.57v9.1H316.73z"/>
			<path fill="#3A5A40" d="M331.77,96.13c-1.51,0-2.75-0.4-3.7-1.2c-0.95-0.8-1.43-1.84-1.43-3.12c0-1.33,0.51-2.38,1.54-3.13
				c1.03-0.76,2.44-1.13,4.24-1.13c0.58,0,1.15,0.04,1.73,0.13c0.58,0.09,1.14,0.23,1.7,0.41v-1c0-0.81-0.25-1.42-0.76-1.84
				s-1.24-0.62-2.21-0.62c-0.59,0-1.24,0.09-1.93,0.28c-0.69,0.19-1.48,0.48-2.36,0.88l-1.35-2.73c1.1-0.5,2.16-0.88,3.2-1.13
				s2.06-0.38,3.06-0.38c1.89,0,3.36,0.46,4.42,1.36c1.05,0.91,1.58,2.19,1.58,3.85v9.13h-3.64v-0.97
				c-0.59,0.41-1.22,0.72-1.88,0.92C333.31,96.03,332.58,96.13,331.77,96.13z M330.17,91.73c0,0.54,0.23,0.97,0.7,1.28
				c0.47,0.32,1.09,0.47,1.86,0.47c0.61,0,1.17-0.08,1.69-0.23c0.51-0.15,0.99-0.37,1.42-0.66v-2.11c-0.45-0.18-0.92-0.31-1.42-0.39
				c-0.5-0.08-1.01-0.12-1.55-0.12c-0.85,0-1.51,0.16-1.98,0.47C330.41,90.76,330.17,91.19,330.17,91.73z"/>
			<path fill="#3A5A40" d="M349.18,92.91c0.63,0,1.22-0.13,1.77-0.38c0.55-0.25,1.08-0.65,1.58-1.19l2.21,2.29
				c-0.72,0.79-1.58,1.41-2.59,1.85c-1.01,0.44-2.05,0.66-3.13,0.66c-1.03,0-1.99-0.19-2.9-0.57c-0.91-0.38-1.69-0.89-2.35-1.54
				c-0.66-0.65-1.17-1.42-1.55-2.31s-0.57-1.85-0.57-2.88c0-1.03,0.19-1.99,0.57-2.88s0.9-1.67,1.55-2.32
				c0.66-0.66,1.44-1.17,2.35-1.55c0.91-0.38,1.88-0.57,2.9-0.57c1.12,0,2.19,0.22,3.21,0.66c1.03,0.44,1.9,1.06,2.62,1.85
				l-2.27,2.4c-0.5-0.56-1.04-0.98-1.62-1.27c-0.58-0.29-1.2-0.43-1.86-0.43c-1.06,0-1.96,0.4-2.69,1.19
				c-0.73,0.79-1.09,1.76-1.09,2.92c0,1.15,0.37,2.12,1.12,2.89C347.19,92.53,348.1,92.91,349.18,92.91z"/>
			<path fill="#3A5A40" d="M356.66,95.88v-18.9l3.7-0.81v11.58l6.07-5.94h4.19l-6.59,6.45l6.99,7.61h-4.72l-5.94-6.43v6.43H356.66z"
				/>
			<path fill="#3A5A40" d="M383.55,94.13c-0.86,0.7-1.75,1.21-2.66,1.54s-1.92,0.49-3.04,0.49c-1.06,0-2.06-0.19-2.98-0.57
				c-0.93-0.38-1.73-0.89-2.4-1.54c-0.67-0.65-1.21-1.42-1.59-2.31c-0.39-0.89-0.58-1.85-0.58-2.88c0-1.01,0.18-1.96,0.55-2.85
				c0.37-0.89,0.88-1.67,1.53-2.32c0.65-0.66,1.42-1.17,2.31-1.55s1.84-0.57,2.85-0.57c0.99,0,1.91,0.19,2.77,0.58
				c0.85,0.39,1.59,0.91,2.21,1.58c0.62,0.67,1.11,1.46,1.46,2.39c0.35,0.93,0.53,1.93,0.53,3.01v0.97h-10.48
				c0.25,0.88,0.74,1.59,1.46,2.13c0.72,0.54,1.57,0.81,2.54,0.81c0.61,0,1.19-0.1,1.73-0.3s1-0.48,1.38-0.84L383.55,94.13z
				 M377.45,84.62c-0.85,0-1.58,0.26-2.19,0.77c-0.61,0.51-1.04,1.2-1.27,2.07h6.88c-0.23-0.83-0.66-1.51-1.28-2.04
				C378.98,84.89,378.26,84.62,377.45,84.62z"/>
			<path fill="#3A5A40" d="M386.77,95.88V81.82h3.7v1.54c0.45-0.61,0.99-1.08,1.63-1.39c0.64-0.31,1.34-0.47,2.12-0.47
				c0.36,0.02,0.66,0.05,0.9,0.09c0.24,0.05,0.46,0.12,0.63,0.23v3.24c-0.27-0.13-0.57-0.22-0.89-0.28c-0.32-0.06-0.66-0.09-1-0.09
				c-0.72,0-1.38,0.18-1.98,0.54c-0.6,0.36-1.08,0.88-1.42,1.57v9.1H386.77z"/>
		</g>
		<g enable-background="new    ">
			<path fill="#F0952D" d="M195.84,111.56c-0.16,1.74-0.81,3.11-1.93,4.08c-1.12,0.98-2.62,1.47-4.48,1.47
				c-1.3,0-2.45-0.31-3.44-0.93c-0.99-0.62-1.76-1.5-2.3-2.63c-0.54-1.14-0.82-2.46-0.84-3.96v-1.53c0-1.54,0.27-2.9,0.82-4.08
				c0.55-1.17,1.33-2.08,2.35-2.72c1.02-0.64,2.2-0.96,3.54-0.96c1.8,0,3.26,0.49,4.36,1.47c1.1,0.98,1.74,2.36,1.92,4.15h-2.83
				c-0.13-1.18-0.48-2.02-1.03-2.54c-0.55-0.52-1.36-0.78-2.42-0.78c-1.24,0-2.18,0.45-2.85,1.35c-0.66,0.9-1,2.23-1.02,3.97v1.45
				c0,1.77,0.32,3.12,0.95,4.05c0.63,0.93,1.56,1.39,2.78,1.39c1.12,0,1.95-0.25,2.52-0.75c0.56-0.5,0.92-1.34,1.07-2.5H195.84z"/>
			<path fill="#F0952D" d="M197.61,110.7c0-1.19,0.24-2.26,0.71-3.22c0.47-0.96,1.13-1.69,1.99-2.2s1.83-0.77,2.94-0.77
				c1.64,0,2.97,0.53,3.99,1.58c1.02,1.06,1.57,2.46,1.66,4.2l0.01,0.64c0,1.2-0.23,2.27-0.69,3.21c-0.46,0.94-1.12,1.67-1.98,2.19
				c-0.86,0.52-1.85,0.78-2.97,0.78c-1.71,0-3.09-0.57-4.12-1.71c-1.03-1.14-1.54-2.66-1.54-4.56V110.7z M200.33,110.93
				c0,1.25,0.26,2.23,0.77,2.94c0.52,0.71,1.24,1.06,2.16,1.06s1.64-0.36,2.15-1.08c0.51-0.72,0.77-1.77,0.77-3.16
				c0-1.23-0.26-2.2-0.79-2.92c-0.53-0.72-1.25-1.08-2.15-1.08c-0.89,0-1.6,0.35-2.12,1.06
				C200.6,108.47,200.33,109.52,200.33,110.93z"/>
			<path fill="#F0952D" d="M213.74,104.73l0.08,1.4c0.9-1.08,2.08-1.63,3.54-1.63c2.53,0,3.82,1.45,3.86,4.35v8.03h-2.73v-7.87
				c0-0.77-0.17-1.34-0.5-1.71c-0.33-0.37-0.88-0.56-1.63-0.56c-1.1,0-1.92,0.5-2.46,1.49v8.65h-2.73v-12.15H213.74z"/>
			<path fill="#F0952D" d="M226.53,104.73l0.08,1.4c0.9-1.08,2.08-1.63,3.54-1.63c2.53,0,3.82,1.45,3.86,4.35v8.03h-2.73v-7.87
				c0-0.77-0.17-1.34-0.5-1.71c-0.33-0.37-0.88-0.56-1.63-0.56c-1.1,0-1.92,0.5-2.46,1.49v8.65h-2.73v-12.15H226.53z"/>
			<path fill="#F0952D" d="M242.15,117.11c-1.73,0-3.13-0.54-4.21-1.63c-1.08-1.09-1.61-2.54-1.61-4.35v-0.34
				c0-1.21,0.23-2.3,0.7-3.25c0.47-0.95,1.13-1.7,1.97-2.23c0.85-0.53,1.79-0.8,2.83-0.8c1.66,0,2.93,0.53,3.84,1.58
				c0.9,1.06,1.35,2.55,1.35,4.48v1.1h-7.94c0.08,1,0.42,1.8,1,2.38s1.33,0.88,2.22,0.88c1.25,0,2.27-0.5,3.05-1.52l1.47,1.4
				c-0.49,0.73-1.14,1.29-1.95,1.69C244.07,116.91,243.16,117.11,242.15,117.11z M241.82,106.7c-0.75,0-1.35,0.26-1.81,0.79
				c-0.46,0.52-0.75,1.25-0.88,2.19h5.2v-0.2c-0.06-0.91-0.3-1.6-0.73-2.07S242.58,106.7,241.82,106.7z"/>
			<path fill="#F0952D" d="M254.13,114.93c0.68,0,1.25-0.2,1.7-0.59c0.45-0.4,0.69-0.89,0.72-1.47h2.57
				c-0.03,0.76-0.27,1.46-0.71,2.12c-0.44,0.66-1.04,1.17-1.8,1.56c-0.76,0.38-1.57,0.57-2.45,0.57c-1.7,0-3.05-0.55-4.04-1.65
				c-1-1.1-1.49-2.62-1.49-4.56v-0.28c0-1.85,0.49-3.33,1.48-4.44c0.99-1.11,2.34-1.67,4.04-1.67c1.44,0,2.62,0.42,3.53,1.26
				c0.91,0.84,1.39,1.95,1.43,3.32h-2.57c-0.03-0.7-0.27-1.27-0.71-1.72s-1.01-0.67-1.7-0.67c-0.88,0-1.57,0.32-2.04,0.96
				c-0.48,0.64-0.72,1.61-0.73,2.91v0.44c0,1.32,0.24,2.3,0.71,2.95C252.54,114.61,253.23,114.93,254.13,114.93z"/>
			<path fill="#F0952D" d="M264.6,101.78v2.95h2.14v2.02h-2.14v6.78c0,0.46,0.09,0.8,0.27,1c0.18,0.21,0.51,0.31,0.98,0.31
				c0.31,0,0.63-0.04,0.95-0.11v2.11c-0.62,0.17-1.22,0.26-1.8,0.26c-2.1,0-3.14-1.16-3.14-3.47v-6.88h-2v-2.02h2v-2.95H264.6z"/>
			<path fill="#F0952D" d="M275.63,113.58c0-0.49-0.2-0.86-0.6-1.11c-0.4-0.25-1.07-0.48-1.99-0.67c-0.93-0.19-1.7-0.44-2.33-0.74
				c-1.36-0.66-2.04-1.61-2.04-2.86c0-1.05,0.44-1.92,1.33-2.63c0.88-0.7,2.01-1.06,3.37-1.06c1.45,0,2.63,0.36,3.52,1.08
				c0.89,0.72,1.34,1.65,1.34,2.8h-2.73c0-0.52-0.19-0.96-0.58-1.31c-0.39-0.35-0.91-0.52-1.55-0.52c-0.6,0-1.09,0.14-1.46,0.42
				c-0.38,0.28-0.57,0.65-0.57,1.11c0,0.42,0.18,0.75,0.53,0.98c0.35,0.23,1.06,0.47,2.13,0.7c1.07,0.24,1.91,0.52,2.52,0.84
				c0.61,0.33,1.06,0.72,1.36,1.17c0.29,0.46,0.44,1.01,0.44,1.66c0,1.09-0.45,1.98-1.36,2.66c-0.91,0.68-2.09,1.02-3.56,1.02
				c-1,0-1.88-0.18-2.66-0.54c-0.78-0.36-1.38-0.85-1.82-1.48c-0.43-0.63-0.65-1.31-0.65-2.03h2.65c0.04,0.64,0.28,1.14,0.73,1.49
				c0.45,0.35,1.04,0.52,1.79,0.52c0.72,0,1.27-0.14,1.64-0.41C275.45,114.38,275.63,114.02,275.63,113.58z"/>
			<path fill="#F0952D" d="M289.84,101.78v2.95h2.14v2.02h-2.14v6.78c0,0.46,0.09,0.8,0.27,1c0.18,0.21,0.51,0.31,0.98,0.31
				c0.31,0,0.63-0.04,0.95-0.11v2.11c-0.62,0.17-1.22,0.26-1.8,0.26c-2.1,0-3.14-1.16-3.14-3.47v-6.88h-2v-2.02h2v-2.95H289.84z"/>
			<path fill="#F0952D" d="M296.76,106.06c0.89-1.03,2.02-1.55,3.38-1.55c2.59,0,3.9,1.48,3.94,4.44v7.94h-2.73v-7.84
				c0-0.84-0.18-1.43-0.54-1.78c-0.36-0.35-0.9-0.52-1.6-0.52c-1.09,0-1.91,0.49-2.45,1.46v8.68h-2.73V99.63h2.73V106.06z"/>
			<path fill="#F0952D" d="M312.19,117.11c-1.73,0-3.13-0.54-4.21-1.63c-1.07-1.09-1.61-2.54-1.61-4.35v-0.34
				c0-1.21,0.23-2.3,0.7-3.25c0.47-0.95,1.13-1.7,1.97-2.23c0.85-0.53,1.79-0.8,2.83-0.8c1.65,0,2.93,0.53,3.83,1.58
				c0.9,1.06,1.35,2.55,1.35,4.48v1.1h-7.94c0.08,1,0.42,1.8,1,2.38c0.59,0.58,1.33,0.88,2.22,0.88c1.25,0,2.27-0.5,3.05-1.52
				l1.47,1.4c-0.49,0.73-1.14,1.29-1.95,1.69S313.2,117.11,312.19,117.11z M311.86,106.7c-0.75,0-1.35,0.26-1.81,0.79
				c-0.46,0.52-0.75,1.25-0.88,2.19h5.2v-0.2c-0.06-0.91-0.3-1.6-0.73-2.07S312.62,106.7,311.86,106.7z"/>
			<path fill="#F0952D" d="M324.4,110.72c0-1.87,0.43-3.37,1.3-4.51c0.87-1.13,2.03-1.7,3.49-1.7c1.29,0,2.33,0.45,3.12,1.35v-6.22
				h2.73v17.25h-2.47l-0.13-1.26c-0.82,0.99-1.91,1.48-3.27,1.48c-1.42,0-2.57-0.57-3.45-1.72
				C324.84,114.25,324.4,112.69,324.4,110.72z M327.13,110.95c0,1.24,0.24,2.2,0.71,2.89s1.15,1.04,2.03,1.04
				c1.12,0,1.93-0.5,2.45-1.49v-5.19c-0.5-0.97-1.31-1.46-2.43-1.46c-0.88,0-1.57,0.35-2.04,1.05
				C327.37,108.49,327.13,109.55,327.13,110.95z"/>
			<path fill="#F0952D" d="M337.38,110.7c0-1.19,0.24-2.26,0.71-3.22c0.47-0.96,1.13-1.69,1.99-2.2s1.83-0.77,2.94-0.77
				c1.64,0,2.97,0.53,3.99,1.58c1.02,1.06,1.57,2.46,1.66,4.2l0.01,0.64c0,1.2-0.23,2.27-0.69,3.21c-0.46,0.94-1.12,1.67-1.98,2.19
				c-0.86,0.52-1.85,0.78-2.97,0.78c-1.71,0-3.09-0.57-4.12-1.71c-1.03-1.14-1.54-2.66-1.54-4.56V110.7z M340.11,110.93
				c0,1.25,0.26,2.23,0.77,2.94c0.52,0.71,1.24,1.06,2.16,1.06s1.64-0.36,2.15-1.08c0.51-0.72,0.77-1.77,0.77-3.16
				c0-1.23-0.26-2.2-0.79-2.92c-0.53-0.72-1.25-1.08-2.15-1.08c-0.89,0-1.6,0.35-2.12,1.06
				C340.37,108.47,340.11,109.52,340.11,110.93z"/>
			<path fill="#F0952D" d="M354.41,101.78v2.95h2.15v2.02h-2.15v6.78c0,0.46,0.09,0.8,0.28,1s0.51,0.31,0.98,0.31
				c0.31,0,0.63-0.04,0.96-0.11v2.11c-0.62,0.17-1.22,0.26-1.8,0.26c-2.1,0-3.14-1.16-3.14-3.47v-6.88h-2v-2.02h2v-2.95H354.41z"/>
			<path fill="#F0952D" d="M365.45,113.58c0-0.49-0.2-0.86-0.6-1.11c-0.4-0.25-1.06-0.48-1.99-0.67c-0.93-0.19-1.7-0.44-2.32-0.74
				c-1.36-0.66-2.04-1.61-2.04-2.86c0-1.05,0.44-1.92,1.33-2.63c0.88-0.7,2.01-1.06,3.37-1.06c1.45,0,2.63,0.36,3.52,1.08
				s1.34,1.65,1.34,2.8h-2.73c0-0.52-0.2-0.96-0.58-1.31c-0.39-0.35-0.91-0.52-1.55-0.52c-0.6,0-1.09,0.14-1.47,0.42
				c-0.38,0.28-0.57,0.65-0.57,1.11c0,0.42,0.18,0.75,0.53,0.98c0.35,0.23,1.06,0.47,2.13,0.7c1.07,0.24,1.91,0.52,2.52,0.84
				c0.61,0.33,1.06,0.72,1.36,1.17c0.3,0.46,0.44,1.01,0.44,1.66c0,1.09-0.45,1.98-1.36,2.66c-0.91,0.68-2.09,1.02-3.56,1.02
				c-1,0-1.88-0.18-2.66-0.54c-0.78-0.36-1.39-0.85-1.82-1.48c-0.43-0.63-0.65-1.31-0.65-2.03h2.65c0.04,0.64,0.28,1.14,0.73,1.49
				c0.45,0.35,1.04,0.52,1.79,0.52c0.72,0,1.26-0.14,1.64-0.41C365.26,114.38,365.45,114.02,365.45,113.58z"/>
		</g>
	</g>
</g>
</svg>
