<?xml version="1.0" encoding="utf-8"?>
<!-- Generator: Adobe Illustrator 24.3.0, SVG Export Plug-In . SVG Version: 6.00 Build 0)  -->
<svg version="1.1" id="Layer_1" xmlns="http://www.w3.org/2000/svg" xmlns:xlink="http://www.w3.org/1999/xlink" x="0px" y="0px"
	 viewBox="0 0 117.84 83.14" enable-background="new 0 0 117.84 83.14" xml:space="preserve">
<g id="logo_shape_1_">
	<path id="Path_1_1_" fill="#FFFF8D" d="M61.04,77.14c-0.68,0.56-1.39,1.09-2.12,1.58C34.03,60.72,35.48,16.42,58.78,0
		C82.73,17.55,82.76,57.99,61.04,77.14z"/>
	<path id="Path_2_1_" fill="#FFFF8D" d="M52.59,81.47C30.96,88.57,3.01,72.04,0,49.06c5.64-4.83,25.28-4.29,36.24,3.87
		C39.09,63.53,43.87,73.41,52.59,81.47z"/>
	<path id="Path_3_1_" fill="#FFFF8D" d="M65.25,81.47c21.63,7.1,49.58-9.43,52.59-32.42c-5.64-4.83-25.28-4.29-36.24,3.87
		C78.75,63.53,73.98,73.41,65.25,81.47z"/>
	<path id="Path_4_1_" fill="#FFFF8D" d="M18.05,40.17c-1.25-8.46-1.18-16.45,1.84-24.14c4.78-0.27,12.44,2.57,17.23,6.38
		c-1.63,7.06-2.78,14.46-1.91,22.67C29.63,42.97,23.89,41.33,18.05,40.17z"/>
	<path id="Path_5_1_" fill="#FFFF8D" d="M97.39,16c3.64,7.67,3.32,15.75,2.2,24.1c-5.7,1.28-11.09,2.51-16.85,5.13
		c0.06-8.02-0.11-15.5-2.31-22.54C83.86,19.26,91.53,16.22,97.39,16z"/>
</g>
</svg>
